<?xml version="1.0" encoding="UTF-8" standalone="no"?>
<svg
   xmlns:dc="http://purl.org/dc/elements/1.1/"
   xmlns:cc="http://creativecommons.org/ns#"
   xmlns:rdf="http://www.w3.org/1999/02/22-rdf-syntax-ns#"
   xmlns:svg="http://www.w3.org/2000/svg"
   xmlns="http://www.w3.org/2000/svg"
   viewBox="0 0 1005.3333 440"
   height="440"
   width="1005.3333"
   xml:space="preserve"
   id="svg2"
   version="1.1"><metadata
     id="metadata8"><rdf:RDF><cc:Work
         rdf:about=""><dc:format>image/svg+xml</dc:format><dc:type
           rdf:resource="http://purl.org/dc/dcmitype/StillImage" /></cc:Work></rdf:RDF></metadata><defs
     id="defs6" /><g
     transform="matrix(1.3333333,0,0,-1.3333333,0,440)"
     id="g10"><g
       transform="scale(0.1)"
       id="g12"><path
         id="path14"
         style="fill:#ffffff;fill-opacity:1;fill-rule:nonzero;stroke:none"
         d="M 0,3300 H 7540 V 0 H 0 v 3300" /><path
         id="path16"
         style="fill:#040606;fill-opacity:1;fill-rule:nonzero;stroke:none"
         d="m 7041.7,783.141 c -12.61,-5.243 -30.42,-12.2 -57.43,-12.2 -48.29,0 -85.77,31.797 -85.77,83.149 -0.15,46.98 31.63,83.531 87.39,83.531 25.72,0 42.92,-5.949 54.55,-12.199 l 9.66,31.777 c -12.37,6.422 -36.67,13.41 -64.45,13.41 -78.36,0 -129.85,-49.359 -129.85,-119.39 0,-66.078 47.51,-113.821 120.7,-113.821 34.63,0 61.14,9.012 72.71,14.434 l -7.51,31.309 z m -396.59,92.687 c 3.76,27.313 23.33,65.801 70.52,65.801 54.83,0 63.66,-46.68 63.33,-65.801 h -133.85 z m 172.81,-30.539 c 1.06,4.563 1.61,10.672 1.61,19.09 0,37.84 -19.22,106.68 -100.72,106.68 -71.73,0 -114.41,-55.098 -114.41,-120.848 0,-66.231 45.53,-112.332 118.82,-112.332 41.16,0 67.77,8.98 82.46,15.281 l -7.49,29.66 c -16.99,-6.711 -36.33,-12.379 -69.77,-12.379 -45.61,0 -82.88,25.239 -83.86,75.329 l 173.36,-0.481 z m -441.58,22.672 c 0,6.891 1.29,12.359 2.7,17.328 9.84,34.25 39.54,52.992 70.59,52.992 48.08,0 75.33,-37.859 75.33,-82.531 0,-52.301 -29.93,-85.309 -77.12,-85.309 -35.63,0 -62.37,23.649 -69.75,50.141 -1.12,4.809 -1.75,9.957 -1.75,14.93 v 32.449 z m -41.87,-66.352 c 0,-21.39 -0.6,-42.578 -1.83,-58.687 h 36.44 l 1.92,38.988 h 0.92 c 19.48,-32.281 49.69,-44.512 84.57,-44.512 54.65,0 110.89,40.352 110.89,119.821 0.29,65.453 -42.72,113.39 -104.73,113.39 -41.52,0 -70.32,-18.41 -85.4,-44.359 h -0.91 v 145.61 h -41.87 V 801.609 Z m -229.02,74.219 c 3.79,27.313 23.33,65.801 70.55,65.801 54.82,0 63.62,-46.68 63.33,-65.801 h -133.88 z m 172.81,-30.539 c 1.06,4.563 1.61,10.672 1.61,19.09 0,37.84 -19.22,106.68 -100.7,106.68 -71.75,0 -114.42,-55.098 -114.42,-120.848 0,-66.231 45.54,-112.332 118.83,-112.332 41.14,0 67.75,8.98 82.47,15.281 l -7.49,29.66 c -17.02,-6.711 -36.36,-12.379 -69.78,-12.379 -45.6,0 -82.9,25.239 -83.86,75.329 l 173.34,-0.481 z m -81.23,214.821 -41.94,-67.079 h 30.28 l 58.77,67.079 h -47.11 z m -187.06,-95.02 h -41.86 V 832.5 c 0,-7.84 -1.92,-15.219 -4.27,-21.012 -9.33,-20.75 -31.55,-39.539 -60.66,-39.539 -40.54,0 -56.24,29.762 -56.24,74.571 v 118.57 h -41.86 V 838.762 c 0,-85.453 50.56,-101.364 83.98,-101.364 45.12,0 70.79,26 82.17,46.204 h 1.21 l 2.07,-40.68 h 37.3 c -1.23,17.906 -1.84,38.008 -1.84,60.887 V 965.09 Z m -418.3,-194.649 c -69.83,0 -114.02,56.848 -114.02,124.289 0,69.321 40,130.33 116.59,130.33 74.35,0 113.72,-62.919 113.72,-125.849 0,-73.539 -44.42,-128.77 -115.81,-128.77 h -0.48 z m 161.31,-39.222 c -29.16,4.14 -67.01,11.812 -100.99,19.062 v 1.848 c 57.69,19.172 100.13,71.351 100.13,149.332 0,89.129 -62.67,156.619 -157.17,156.619 -93.24,0 -161.46,-66.842 -161.46,-164.639 0,-97.152 71.45,-152.359 152.53,-156.043 7.56,-0.277 14.38,-2.316 21.27,-4.437 42.36,-13.473 86.5,-25.52 134.29,-36.539 l 11.4,34.797 z M 5273.37,965.09 h -41.85 V 832.5 c 0,-7.84 -1.93,-15.219 -4.28,-21.012 -9.31,-20.75 -31.53,-39.539 -60.66,-39.539 -40.53,0 -56.24,29.762 -56.24,74.571 v 118.57 h -41.86 V 838.762 c 0,-85.453 50.56,-101.364 83.98,-101.364 45.12,0 70.79,26 82.2,46.204 h 1.18 l 2.07,-40.68 h 37.3 c -1.24,17.906 -1.84,38.008 -1.84,60.887 V 965.09 Z M 4955.12,841.102 c 0,-6.661 -0.64,-12.481 -2.2,-18.18 -7.27,-29.66 -34.93,-52.082 -67.36,-52.082 -49.63,0 -75.54,37.48 -75.54,81.961 0,50.34 29.99,85.597 76,85.597 34.85,0 59.33,-21.308 67.03,-47.558 1.43,-5.481 2.07,-12.692 2.07,-18.129 v -31.609 z m 0,230.758 V 934.41 h -0.91 c -10.34,17.391 -35.84,36.199 -75.84,36.199 -60.78,0 -111.22,-47.91 -110.76,-120.679 0,-65.399 46.33,-112.532 105.56,-112.532 40.56,0 70.87,19.622 84.99,47.461 h 0.91 l 1.95,-41.937 h 37.8 c -1.23,16.109 -1.84,37.297 -1.84,58.687 v 270.251 h -41.86 v 0" /><path
         id="path18"
         style="fill:#040606;fill-opacity:1;fill-rule:nonzero;stroke:none"
         d="m 7237.13,1240.58 c 17.66,-9.64 41.59,-16.35 68.59,-16.35 57.83,0 88.48,29.64 88.48,67.26 -0.16,33.91 -19.9,52.88 -62.39,66.39 -31.53,10.06 -47.04,18.19 -47.04,37.74 0,17.54 14.02,31.23 39.5,31.23 23.75,0 42.31,-8.92 50.92,-14.11 l 10.23,30.26 c -13.42,8.17 -35.03,14.42 -59.37,14.42 -52.2,0 -81.99,-30.68 -81.99,-66.35 -0.12,-27.02 19.9,-49.76 63.73,-62.9 31.99,-9.78 45.55,-19.42 45.55,-39.75 0,-18.1 -13.95,-33.33 -46.6,-33.33 -22.04,0 -45.8,8.82 -59.4,17.22 l -10.21,-31.73 z m -213.21,122.08 c 3.76,27.31 23.33,65.79 70.51,65.79 54.83,0 63.66,-46.69 63.33,-65.79 h -133.84 z m 172.81,-30.54 c 1.03,4.55 1.58,10.66 1.58,19.08 0,37.82 -19.22,106.68 -100.7,106.68 -71.75,0 -114.4,-55.11 -114.4,-120.87 0,-66.2 45.52,-112.32 118.81,-112.32 41.16,0 67.75,8.99 82.47,15.29 l -7.49,29.67 c -16.99,-6.71 -36.34,-12.4 -69.78,-12.4 -45.6,0 -82.9,25.25 -83.86,75.33 l 173.37,-0.46 z m -355.1,-102.38 h 41.87 v 117.23 c 0,6.24 0.62,12.82 1.73,18.42 6.11,31.77 27.32,53.49 57.84,53.49 6.42,0 11.06,-0.41 16.36,-1.47 v 38.63 c -4.19,1.06 -7.74,1.38 -12.51,1.38 -29.16,0 -55.53,-19.32 -66.99,-52.04 h -1.5 l -1.47,46.53 h -36.72 c 1.39,-21.95 1.84,-44.42 1.84,-73.14 l -0.45,-149.03 z m -154.71,264.39 v -42.22 h -36.84 v -31.87 h 36.84 v -118.8 c 0,-24.54 4.64,-45.72 16.5,-58.68 10.02,-11.44 26.48,-18.33 46.56,-18.33 17.04,0 31.02,2.89 39.4,6.25 l -1.95,31.82 c -6.71,-2.15 -13.94,-3.44 -26.45,-3.44 -25.85,0 -33.02,18.33 -33.02,45.56 v 115.62 h 63.2 v 31.87 h -63.2 v 53.68 l -41.04,-11.46 z m -163.87,0 v -42.22 h -36.85 v -31.87 h 36.85 v -118.8 c 0,-24.54 4.64,-45.72 16.49,-58.68 10.01,-11.44 26.46,-18.33 46.55,-18.33 17.05,0 31.03,2.89 39.38,6.25 l -1.93,31.82 c -6.69,-2.15 -13.96,-3.44 -26.45,-3.44 -25.85,0 -33.01,18.33 -33.01,45.56 v 115.62 h 63.18 v 31.87 h -63.18 v 53.68 l -41.03,-11.46 z m -238.21,-131.47 c 3.76,27.31 23.3,65.79 70.52,65.79 54.83,0 63.65,-46.69 63.32,-65.79 h -133.84 z m 172.79,-30.54 c 1.05,4.55 1.61,10.66 1.61,19.08 0,37.82 -19.22,106.68 -100.7,106.68 -71.75,0 -114.4,-55.11 -114.4,-120.87 0,-66.2 45.52,-112.32 118.81,-112.32 41.13,0 67.74,8.99 82.47,15.29 l -7.49,29.67 c -17,-6.71 -36.34,-12.4 -69.79,-12.4 -45.59,0 -82.9,25.25 -83.85,75.33 l 173.34,-0.46 z m -310.14,-102.38 h 41.85 v 328.93 h -41.85 v -328.93 z m -320.42,10.84 c 17.66,-9.64 41.59,-16.35 68.62,-16.35 57.82,0 88.45,29.64 88.45,67.26 -0.13,33.91 -19.87,52.88 -62.39,66.39 -31.5,10.06 -47.01,18.19 -47.01,37.74 0,17.54 14,31.23 39.47,31.23 23.76,0 42.32,-8.92 50.92,-14.11 l 10.24,30.26 c -13.42,8.17 -35.01,14.42 -59.37,14.42 -52.2,0 -81.97,-30.68 -81.97,-66.35 -0.14,-27.02 19.88,-49.76 63.71,-62.9 31.98,-9.78 45.57,-19.42 45.57,-39.75 0,-18.1 -13.96,-33.33 -46.6,-33.33 -22.07,0 -45.83,8.82 -59.42,17.22 l -10.22,-31.73 z m -213.2,122.08 c 3.75,27.31 23.32,65.79 70.53,65.79 54.81,0 63.64,-46.69 63.31,-65.79 h -133.84 z m 172.8,-30.54 c 1.06,4.55 1.61,10.66 1.61,19.08 0,37.82 -19.21,106.68 -100.72,106.68 -71.73,0 -114.41,-55.11 -114.41,-120.87 0,-66.2 45.53,-112.32 118.82,-112.32 41.16,0 67.77,8.99 82.49,15.29 l -7.51,29.67 c -17,-6.71 -36.34,-12.4 -69.76,-12.4 -45.63,0 -82.89,25.25 -83.88,75.33 l 173.36,-0.46 z m -310.16,-4.19 c 0,-6.66 -0.62,-12.49 -2.19,-18.19 -7.26,-29.66 -34.95,-52.07 -67.36,-52.07 -49.64,0 -75.53,37.46 -75.53,81.97 0,50.32 29.98,85.58 75.98,85.58 34.86,0 59.32,-21.3 67.03,-47.56 1.45,-5.47 2.07,-12.68 2.07,-18.15 v -31.58 z m 0,230.74 v -137.43 h -0.9 c -10.35,17.36 -35.84,36.18 -75.84,36.18 -60.78,0 -111.23,-47.91 -110.77,-120.68 0,-65.38 46.33,-112.51 105.57,-112.51 40.56,0 70.87,19.6 85,47.44 h 0.91 l 1.93,-41.93 h 37.81 c -1.24,16.12 -1.84,37.31 -1.84,58.68 v 270.25 h -41.87 z m -430,-64.54 v -42.22 h -36.82 v -31.87 h 36.82 v -118.8 c 0,-24.54 4.64,-45.72 16.53,-58.68 10.01,-11.44 26.45,-18.33 46.52,-18.33 17.05,0 31.03,2.89 39.4,6.25 l -1.92,31.82 c -6.71,-2.15 -13.97,-3.44 -26.45,-3.44 -25.88,0 -33.04,18.33 -33.04,45.56 v 115.62 h 63.2 v 31.87 h -63.2 v 53.68 l -41.04,-11.46 z m -238.2,-131.47 c 3.78,27.31 23.33,65.79 70.54,65.79 54.83,0 63.63,-46.69 63.3,-65.79 h -133.84 z m 172.8,-30.54 c 1.07,4.55 1.62,10.66 1.62,19.08 0,37.82 -19.21,106.68 -100.73,106.68 -71.73,0 -114.39,-55.11 -114.39,-120.87 0,-66.2 45.54,-112.32 118.84,-112.32 41.13,0 67.73,8.99 82.46,15.29 l -7.49,29.67 c -17.03,-6.71 -36.37,-12.4 -69.78,-12.4 -45.6,0 -82.9,25.25 -83.89,75.33 l 173.36,-0.46 v 0" /><path
         id="path20"
         style="fill:#040606;fill-opacity:1;fill-rule:nonzero;stroke:none"
         d="m 6187.39,1727.4 c 17.66,-9.65 41.59,-16.36 68.63,-16.36 57.8,0 88.44,29.64 88.44,67.27 -0.12,33.91 -19.89,52.88 -62.39,66.39 -31.5,10.06 -47.04,18.18 -47.04,37.74 0,17.54 14.02,31.22 39.5,31.22 23.75,0 42.32,-8.91 50.92,-14.11 l 10.23,30.26 c -13.41,8.18 -35,14.43 -59.36,14.43 -52.21,0 -81.99,-30.69 -81.99,-66.35 -0.13,-27.02 19.9,-49.77 63.73,-62.9 31.98,-9.78 45.57,-19.42 45.57,-39.77 0,-18.08 -13.97,-33.32 -46.61,-33.32 -22.06,0 -45.82,8.82 -59.41,17.23 l -10.22,-31.73 z m -138.88,253.55 v -42.22 h -36.85 v -31.87 h 36.85 v -118.8 c 0,-24.54 4.63,-45.73 16.49,-58.69 10.01,-11.43 26.46,-18.33 46.55,-18.33 17.05,0 31.03,2.9 39.38,6.25 l -1.93,31.83 c -6.7,-2.16 -13.96,-3.45 -26.45,-3.45 -25.85,0 -33.01,18.33 -33.01,45.58 v 115.61 h 63.17 v 31.87 h -63.17 v 53.67 l -41.03,-11.45 z m -182.67,-264.4 h 41.87 v 117.24 c 0,6.25 0.62,12.81 1.73,18.42 6.11,31.76 27.32,53.48 57.84,53.48 6.42,0 11.06,-0.41 16.36,-1.46 v 38.63 c -4.19,1.06 -7.72,1.38 -12.51,1.38 -29.16,0 -55.53,-19.33 -66.98,-52.04 h -1.51 l -1.47,46.53 h -36.72 c 1.39,-21.95 1.84,-44.41 1.84,-73.14 l -0.45,-149.04 z m -111.45,76.42 c 0,-3.81 -0.63,-8.41 -2.19,-12.73 -7.22,-17.82 -27.41,-38.52 -61.29,-38.52 -22.82,0 -41.21,12.81 -41.21,38.52 0,41.19 52.43,50.51 104.69,49.22 v -36.49 z m 40.9,56.4 c 0,42.65 -15.73,94.87 -91.44,94.87 -29.99,0 -59.02,-7.54 -80.45,-21.13 l 9.69,-27.55 c 17.27,11.48 41.88,18.24 64.91,18.24 51.35,0.32 55.58,-37.41 55.58,-51.47 v -3.94 c -97.67,0.97 -146.42,-30.27 -146.42,-83.53 0,-29.68 23,-63.82 72.93,-63.82 35.99,0 62.77,17.68 75.79,35.09 h 1.18 l 3.97,-29.58 h 37.94 c -2.61,15.58 -3.68,34.42 -3.68,54.12 v 78.7 z M 5305.7,1727.4 c 17.63,-9.65 41.59,-16.36 68.6,-16.36 57.8,0 88.47,29.64 88.47,67.27 -0.15,33.91 -19.9,52.88 -62.4,66.39 -31.52,10.06 -47.03,18.18 -47.03,37.74 0,17.54 13.99,31.22 39.49,31.22 23.73,0 42.3,-8.91 50.9,-14.11 l 10.26,30.26 c -13.41,8.18 -35.03,14.43 -59.39,14.43 -52.18,0 -81.96,-30.69 -81.96,-66.35 -0.16,-27.02 19.87,-49.77 63.73,-62.9 31.95,-9.78 45.54,-19.42 45.54,-39.77 0,-18.08 -13.94,-33.32 -46.61,-33.32 -22.04,0 -45.79,8.82 -59.41,17.23 l -10.19,-31.73 z m -213.24,122.07 c 3.79,27.32 23.33,65.8 70.55,65.8 54.82,0 63.62,-46.7 63.32,-65.8 h -133.87 z m 172.81,-30.53 c 1.06,4.55 1.61,10.66 1.61,19.08 0,37.83 -19.21,106.68 -100.7,106.68 -71.75,0 -114.42,-55.1 -114.42,-120.87 0,-66.2 45.54,-112.33 118.84,-112.33 41.13,0 67.74,9 82.47,15.3 l -7.49,29.66 c -17.03,-6.7 -36.37,-12.4 -69.79,-12.4 -45.59,0 -82.9,25.26 -83.86,75.33 l 173.34,-0.45 z m -310.15,-4.19 c 0,-6.66 -0.64,-12.49 -2.2,-18.2 -7.27,-29.66 -34.93,-52.07 -67.36,-52.07 -49.63,0 -75.54,37.47 -75.54,81.97 0,50.33 29.99,85.6 76,85.6 34.85,0 59.33,-21.31 67.03,-47.58 1.43,-5.47 2.07,-12.67 2.07,-18.13 v -31.59 z m 0,230.74 v -137.43 h -0.91 c -10.34,17.36 -35.84,36.18 -75.84,36.18 -60.78,0 -111.22,-47.91 -110.76,-120.69 0,-65.38 46.33,-112.51 105.56,-112.51 40.56,0 70.87,19.6 84.99,47.45 h 0.91 l 1.95,-41.94 h 37.8 c -1.23,16.13 -1.84,37.32 -1.84,58.68 v 270.26 h -41.86 v 0" /><path
         id="path22"
         style="fill:#040606;fill-opacity:1;fill-rule:nonzero;stroke:none"
         d="m 6198.09,2203.38 h 41.83 v 328.92 h -41.83 v -328.92 z m -94.15,264.09 c 16.87,0 27.26,12.41 27.26,26.53 -0.13,14.43 -10.71,26.38 -26.93,26.38 -16.24,0 -27.27,-12.27 -27.27,-26.38 0,-14.12 10.39,-26.53 26.49,-26.53 h 0.45 z m 21.03,-264.09 v 222.17 h -41.86 v -222.17 h 41.86 z m -270.89,132.91 c 3.76,27.32 23.33,65.8 70.55,65.8 54.79,0 63.62,-46.7 63.3,-65.8 h -133.85 z m 172.81,-30.54 c 1.06,4.55 1.62,10.67 1.62,19.09 0,37.83 -19.22,106.68 -100.74,106.68 -71.72,0 -114.39,-55.1 -114.39,-120.87 0,-66.21 45.53,-112.33 118.81,-112.33 41.16,0 67.77,8.99 82.47,15.3 l -7.49,29.66 c -16.99,-6.71 -36.34,-12.4 -69.79,-12.4 -45.59,0 -82.87,25.25 -83.85,75.33 l 173.36,-0.46 z m -409.47,-91.53 c 17.66,-9.65 41.58,-16.36 68.6,-16.36 57.83,0 88.47,29.64 88.47,67.27 -0.15,33.9 -19.9,52.88 -62.39,66.39 -31.53,10.05 -47.04,18.19 -47.04,37.74 0,17.54 13.99,31.22 39.49,31.22 23.74,0 42.33,-8.92 50.9,-14.1 l 10.26,30.25 c -13.42,8.18 -35.03,14.42 -59.36,14.42 -52.21,0 -81.99,-30.68 -81.99,-66.34 -0.15,-27.01 19.9,-49.77 63.73,-62.9 31.95,-9.79 45.54,-19.43 45.54,-39.77 0,-18.08 -13.94,-33.32 -46.6,-33.32 -22.05,0 -45.8,8.82 -59.39,17.23 l -10.22,-31.73 z m -262.21,-10.84 h 41.86 v 131.83 c 0,6.34 1.29,13.6 3.13,18.38 8.17,22.22 31.07,43.25 61.49,43.25 41.81,0 58.15,-31.36 58.15,-70.4 v -123.06 h 41.87 v 126.93 c 0,83.82 -56.02,100.74 -86.46,100.74 -41.13,0 -69.61,-23.47 -80.98,-45.32 h -1.2 l -2.38,39.82 h -37.32 c 1.26,-18.62 1.84,-38.69 1.84,-60.9 v -161.27 z m -176.72,25.43 c -41.51,0 -76.55,32.29 -76.55,85.01 0,44.81 25.48,86.29 78.29,86.29 53.59,0 76.77,-45.92 76.77,-84.69 0,-55.65 -36.54,-86.61 -78.05,-86.61 h -0.46 z m -0.28,-30.95 c 59.42,0 122.22,38.32 122.22,119.36 0,64.46 -46.79,113.83 -118.76,113.83 -69.18,0 -122.22,-46.62 -122.22,-118.75 0,-68 51.22,-114.44 118.3,-114.44 h 0.46 z m -156.94,49.51 c -19.22,-9.18 -48.3,-14.73 -76.67,-14.73 -87.31,0 -133.9,54.23 -133.9,123.58 0,76.98 51.1,128.14 137.05,128.14 28.95,0 55.13,-6.44 72.69,-14.8 l 10.52,33.34 c -11.94,6.03 -40.33,15.62 -85.13,15.62 -111.83,0 -179,-73.94 -179,-162.81 0,-100.5 72.75,-157.85 168.94,-157.85 43.89,0 78.23,8.91 94.3,16.94 l -8.8,32.57 v 0" /><path
         id="path24"
         style="fill:#040606;fill-opacity:1;fill-rule:nonzero;stroke:none"
         d="m 3266.36,1697.14 c -17.83,7.42 -36.96,11.1 -55.57,12.51 -181.87,11.53 -351.51,145.65 -351.51,408.24 0,241.5 152.55,422.38 393.43,422.38 245.43,0 379.9,-186.19 379.9,-405.84 0,-182.62 -84.28,-311.58 -190.26,-358.79 v -4.94 c 61.54,-18.12 130.86,-32.74 193.84,-45.54 l -51.71,-140.58 c -114.64,32.94 -209.98,68.33 -318.12,112.56 z m -418.96,25.63 h -501.9 v 804.37 h 181.86 v -651.93 h 320.04 z m -817.19,0 -61.84,206.54 h -231.29 l -56.77,-206.54 h -188.05 l 245.48,804.37 h 238.01 l 250.42,-804.37 z m -795.36,138.82 c 55.75,0 115.99,10.97 152.05,26 l 27.13,-142.65 c -32.57,-16.11 -108.74,-34.7 -205.61,-34.7 -278.525,0 -422.115,174.07 -422.115,403.35 0,274.28 196.539,426.08 439.375,426.08 94.58,0 166.42,-18.44 198.01,-35.67 l -37.09,-143.8 c -36.17,15.82 -87.82,30.2 -152.79,30.2 -143.49,0 -255.962,-87.48 -255.962,-266.23 0,-161.29 95.072,-262.58 257.002,-262.58 z M 3213.13,3298.36 991.863,3300 145.801,2811.17 1595.63,300 4102.53,1747.36 Z m 34.25,-902.71 c -124.33,0 -196.1,-121.02 -195.89,-272.15 -0.46,-153.07 72.83,-269.24 194.37,-269.24 h 1.19 c 122.37,0 193.31,115.23 193.31,272.59 0,147.11 -68.81,268.8 -192.98,268.8 z m -1396.48,-5.01 h -2.51 c -11.81,-47.32 -23.94,-108.38 -36.84,-155.1 l -48.1,-170.74 h 177.97 l -50.1,170.94 c -13.81,47.56 -28.08,107.83 -40.42,154.9" /></g></g></svg>